<svg width="115" height="44" viewBox="0 0 115 44" fill="none" xmlns="http://www.w3.org/2000/svg">
    <path
        d="M21.9467 43.8935C9.84541 43.8935 0 34.0481 0 21.9467C0 9.84541 9.84541 0 21.9467 0C34.0481 0 43.8935 9.84541 43.8935 21.9467C43.8935 34.0481 34.0481 43.8935 21.9467 43.8935ZM21.9467 2.729C11.3504 2.729 2.729 11.3504 2.729 21.9467C2.729 32.5431 11.3504 41.1645 21.9467 41.1645C32.5431 41.1645 41.1645 32.5431 41.1645 21.9467C41.1645 11.3504 32.5431 2.729 21.9467 2.729Z"
        fill="white" />
    <path
        d="M32.3935 26.7859H37.7227L36.6114 25.3056L27.8033 13.5604L26.7553 12.1658L25.6332 10.6705L24.6774 9.39608H24.6281H22.7143L20.6483 9.38965L8.6746 25.3056L7.56005 26.7859L6.21271 28.5774L6.1698 28.6342H12.4817L10.0874 31.8352H12.3251L14.7666 28.5742L14.7741 28.5634L16.1075 26.7827L17.2156 25.3024L22.0535 18.8457L23.1692 20.3249L26.9237 25.3056H19.5348L18.4546 26.7859L17.1534 28.5709L19.7794 28.5774H19.8491L29.3963 28.5999L31.8732 31.8835L36.3389 31.8931L33.7998 28.6095L32.3935 26.7859ZM25.2191 17.5091L24.1175 16.0834L22.9793 14.6084L20.9261 17.3524L14.9736 25.3056L13.9009 26.7398H11.5849L12.6662 25.3056L19.6389 16.0437L21.6835 13.3201L23.6712 10.6683L24.6495 11.977L25.7694 13.4789L26.8304 14.8959L34.614 25.3099H31.2457L25.2191 17.5091Z"
        fill="white" />
    <path d="M56.2436 1.9375H59.0604L66.9444 20.2369H63.2235L61.5112 16.052H53.5815L51.9258 20.2391H48.2812L56.2436 1.9375ZM60.3827 13.2657L57.5659 5.82177L54.6925 13.2592L60.3827 13.2657Z" fill="white" />
    <path d="M71.3908 13.5709L67.0992 7.83276H70.8788L73.3602 11.5536L76.0484 7.83276H79.5928L75.3448 13.5709L80.3335 20.2393H76.5604L73.3297 15.793L70.0619 20.2393H66.402L71.3908 13.5709Z" fill="white" />
    <path
        d="M81.1607 3.61947C81.1594 3.37525 81.208 3.13334 81.3035 2.90857C81.3991 2.6838 81.5395 2.48092 81.7162 2.31237C81.9009 2.12856 82.1212 1.98447 82.3636 1.88893C82.606 1.7934 82.8653 1.74845 83.1257 1.75685C83.6544 1.74166 84.1683 1.93222 84.5592 2.28841C84.7425 2.45829 84.8888 2.6642 84.9888 2.89325C85.0888 3.1223 85.1404 3.36953 85.1404 3.61947C85.1404 3.8694 85.0888 4.11664 84.9888 4.34569C84.8888 4.57473 84.7425 4.78065 84.5592 4.95053C84.1675 5.30514 83.6539 5.49478 83.1257 5.47991C82.8653 5.48831 82.606 5.44336 82.3636 5.34783C82.1212 5.2523 81.9009 5.1082 81.7162 4.92439C81.5395 4.75633 81.399 4.55384 81.3034 4.32942C81.2079 4.10499 81.1593 3.86338 81.1607 3.61947ZM81.5964 7.83269H84.6964V20.2501H81.6008L81.5964 7.83269Z"
        fill="white" />
    <path
        d="M95.5068 18.5333H95.4306C95.0242 19.2021 94.4303 19.737 93.7226 20.0713C93.0086 20.3948 92.2322 20.5577 91.4483 20.5484C90.8847 20.5494 90.3238 20.4717 89.7818 20.3174C89.2611 20.1724 88.7705 19.9356 88.333 19.6181C87.9122 19.3096 87.5642 18.9125 87.3135 18.4548C87.0458 17.955 86.9122 17.3943 86.9257 16.8275C86.9081 16.234 87.032 15.6447 87.2874 15.1087C87.5191 14.6457 87.8501 14.2395 88.2568 13.9192C88.6818 13.5896 89.1579 13.3321 89.6663 13.1567C90.2078 12.9625 90.7655 12.8167 91.3328 12.721C91.9098 12.627 92.4917 12.5667 93.0756 12.5402C93.6566 12.5141 94.2077 12.501 94.7291 12.501H95.5047V12.1655C95.5047 11.39 95.2374 10.809 94.703 10.4227C94.1026 10.0149 93.3869 9.81095 92.6617 9.84104C92.0327 9.83686 91.409 9.95526 90.8252 10.1896C90.2796 10.4089 89.78 10.7289 89.3526 11.1329L87.7252 9.50556C88.3961 8.81025 89.2249 8.28713 90.1412 7.98061C91.0612 7.6697 92.0261 7.5122 92.9972 7.51441C93.7497 7.49684 94.5002 7.59755 95.2215 7.81286C95.7614 7.97846 96.2685 8.23644 96.7203 8.57534C97.0984 8.86362 97.4111 9.22896 97.6374 9.64716C97.8461 10.0345 98.0028 10.4476 98.1036 10.8758C98.195 11.2709 98.2512 11.6733 98.2714 12.0784C98.2866 12.4661 98.2975 12.806 98.2975 13.0979V20.2325H95.5068V18.5333ZM95.326 14.6817H94.6725C94.2368 14.6817 93.7597 14.6991 93.226 14.734C92.7151 14.7646 92.2086 14.8463 91.7141 14.9779C91.2801 15.0887 90.8717 15.2825 90.5115 15.5487C90.351 15.67 90.2224 15.8286 90.137 16.0109C90.0516 16.1931 90.0119 16.3934 90.0214 16.5944C90.0115 16.8536 90.079 17.11 90.2153 17.3307C90.3469 17.5317 90.5181 17.7037 90.7185 17.8361C90.9315 17.9754 91.1675 18.0758 91.4156 18.1324C91.6697 18.1928 91.93 18.2235 92.1912 18.2239C93.2601 18.2239 94.0487 17.9697 94.557 17.4614C95.0653 16.9531 95.3195 16.2589 95.3195 15.3788L95.326 14.6817Z"
        fill="white" />
    <path d="M56.2436 23.2109H59.0604L66.9444 41.5103H63.2235L61.5112 37.3254H53.5815L51.9258 41.5125H48.2812L56.2436 23.2109ZM60.3827 34.5391L57.5659 27.093L54.6925 34.5348L60.3827 34.5391Z" fill="white" />
    <path
        d="M69.2975 31.7418H66.74V29.1058H69.2997V27.3477C69.2927 26.5641 69.3532 25.7813 69.4805 25.008C69.5789 24.3673 69.8121 23.7548 70.1646 23.2108C70.5145 22.7003 71.0037 22.301 71.574 22.0605C72.3228 21.7683 73.1236 21.6326 73.9268 21.6619C74.5848 21.6569 75.2415 21.7175 75.8875 21.8427L75.6827 24.4787C75.4648 24.4264 75.247 24.3828 75.0291 24.3501C74.8132 24.3143 74.5945 24.2968 74.3756 24.2978C74.0196 24.2813 73.6651 24.3524 73.343 24.5048C73.0943 24.6323 72.8845 24.8241 72.7352 25.0603C72.5823 25.3081 72.485 25.5861 72.4498 25.8751C72.406 26.2 72.3848 26.5276 72.3866 26.8554V29.1058H75.2557V31.7418H72.4041V41.5123H69.2975V31.7418Z"
        fill="white" />
    <path
        d="M76.7599 29.1059H79.8621V31.0665H79.9122C80.2285 30.3736 80.7414 29.7888 81.3871 29.3848C82.0476 28.9818 82.8094 28.7755 83.583 28.79C83.7694 28.7897 83.9554 28.8072 84.1385 28.8423C84.3193 28.8772 84.5045 28.9207 84.694 28.9708V31.9837C84.437 31.914 84.1821 31.8595 83.9316 31.816C83.6885 31.7729 83.4421 31.751 83.1952 31.7506C82.5886 31.7226 81.9859 31.8613 81.4524 32.1514C81.0547 32.381 80.7114 32.6939 80.446 33.0686C80.2275 33.3815 80.0694 33.7324 79.9798 34.1034C79.9148 34.3572 79.8761 34.6171 79.8643 34.8789V41.5212H76.7599V29.1059Z"
        fill="white" />
    <path
        d="M85.9104 24.8927C85.9086 24.6484 85.9569 24.4063 86.0525 24.1815C86.148 23.9566 86.2888 23.7538 86.4659 23.5856C86.6501 23.401 86.8703 23.2563 87.1128 23.1604C87.3552 23.0645 87.6148 23.0194 87.8754 23.0279C88.4038 23.0138 88.9173 23.2042 89.3088 23.5594C89.4922 23.7293 89.6384 23.9352 89.7385 24.1643C89.8385 24.3933 89.8901 24.6405 89.8901 24.8905C89.8901 25.1404 89.8385 25.3876 89.7385 25.6167C89.6384 25.8457 89.4922 26.0517 89.3088 26.2215C88.9171 26.5761 88.4036 26.7658 87.8754 26.7509C87.615 26.7593 87.3556 26.7144 87.1132 26.6188C86.8708 26.5233 86.6506 26.3792 86.4659 26.1954C86.2894 26.0276 86.1491 25.8255 86.0535 25.6014C85.958 25.3774 85.9093 25.1362 85.9104 24.8927V24.8927ZM86.3461 29.1059H89.4483V41.5233H86.357L86.3461 29.1059Z"
        fill="white" />
    <path
        d="M100.989 32.8267C100.655 32.4715 100.271 32.1669 99.8495 31.9226C99.4815 31.7061 99.063 31.5904 98.6361 31.5871C98.1351 31.5762 97.6375 31.672 97.1763 31.868C96.715 32.0641 96.3008 32.356 95.9609 32.7243C95.642 33.0682 95.3953 33.4727 95.2355 33.9137C94.9101 34.8155 94.9101 35.8026 95.2355 36.7044C95.3953 37.1454 95.642 37.5499 95.9609 37.8938C96.3008 38.2622 96.715 38.554 97.1763 38.7501C97.6375 38.9461 98.1351 39.0419 98.6361 39.031C99.1008 39.0352 99.5604 38.9339 99.9803 38.7347C100.397 38.5326 100.76 38.2339 101.039 37.8633L103.109 40.0876C102.79 40.4033 102.428 40.6724 102.035 40.8871C101.643 41.105 101.232 41.2872 100.808 41.4317C100.42 41.5622 100.022 41.6612 99.6186 41.728C99.294 41.7841 98.9655 41.8147 98.6361 41.8195C97.7365 41.8244 96.8435 41.6664 96.0001 41.3533C95.2038 41.0669 94.4749 40.6197 93.8588 40.0395C93.2426 39.4594 92.7525 38.7587 92.4187 37.981C91.7129 36.2666 91.7129 34.3428 92.4187 32.6284C92.7525 31.8507 93.2426 31.15 93.8588 30.5699C94.4749 29.9897 95.2038 29.5425 96.0001 29.2561C96.8435 28.943 97.7365 28.785 98.6361 28.7899C99.4558 28.7943 100.268 28.9478 101.032 29.243C101.838 29.5482 102.56 30.0402 103.139 30.6787L100.989 32.8267Z"
        fill="white" />
    <path
        d="M112.204 39.8065H112.128C111.722 40.4754 111.128 41.0102 110.42 41.3445C109.706 41.6688 108.93 41.8324 108.146 41.8238C107.582 41.8241 107.021 41.7456 106.479 41.5907C105.958 41.4466 105.468 41.2097 105.031 40.8914C104.609 40.5835 104.261 40.1862 104.011 39.7281C103.743 39.2283 103.61 38.6676 103.623 38.1007C103.606 37.5072 103.73 36.9181 103.985 36.3819C104.217 35.9193 104.548 35.5133 104.954 35.1924C105.379 34.8629 105.856 34.6053 106.364 34.43C106.905 34.2358 107.463 34.09 108.03 33.9943C108.607 33.9003 109.189 33.8399 109.773 33.8135C110.354 33.7873 110.905 33.7742 111.427 33.7742H112.202V33.4388C112.202 32.6632 111.935 32.0823 111.401 31.696C110.8 31.2881 110.085 31.0842 109.359 31.1143C108.73 31.1099 108.107 31.2283 107.523 31.4629C106.977 31.6821 106.477 32.003 106.05 32.4083L104.427 30.7853C105.098 30.09 105.927 29.5669 106.843 29.2604C107.763 28.9505 108.728 28.793 109.699 28.7942C110.452 28.7766 111.202 28.8773 111.923 29.0926C112.463 29.2582 112.97 29.5162 113.422 29.8551C113.8 30.1434 114.113 30.5088 114.339 30.927C114.548 31.3143 114.705 31.7274 114.806 32.1556C114.897 32.5507 114.953 32.9531 114.973 33.3582C114.989 33.7459 114.999 34.0858 114.999 34.3777V41.5123H112.204V39.8065ZM112.024 35.9549H111.37C110.934 35.9549 110.457 35.9723 109.924 36.0072C109.413 36.0375 108.906 36.12 108.412 36.2534C107.978 36.3624 107.569 36.5556 107.209 36.822C107.049 36.9434 106.92 37.102 106.835 37.2842C106.749 37.4664 106.71 37.6667 106.719 37.8676C106.709 38.1269 106.777 38.3832 106.913 38.604C107.044 38.8049 107.216 38.9769 107.416 39.1094C107.629 39.2487 107.865 39.349 108.113 39.4057C108.367 39.466 108.628 39.4967 108.889 39.4972C109.959 39.4972 110.748 39.243 111.255 38.7347C111.761 38.2264 112.016 37.5322 112.017 36.652L112.024 35.9549Z"
        fill="white" />
</svg>